<svg width="19" height="5" viewBox="0 0 19 5" fill="none" xmlns="http://www.w3.org/2000/svg">
<path d="M2.91602 4.33496C2.57096 4.33496 2.24219 4.24056 1.92969 4.05176C1.6237 3.85645 1.36979 3.60254 1.16797 3.29004C0.972656 2.97103 0.875 2.62272 0.875 2.24512C0.875 1.86751 0.972656 1.52246 1.16797 1.20996C1.36979 0.890951 1.6237 0.637044 1.92969 0.448242C2.24219 0.25944 2.57096 0.165039 2.91602 0.165039H16.1484C16.513 0.165039 16.8483 0.25944 17.1543 0.448242C17.4668 0.637044 17.7174 0.890951 17.9062 1.20996C18.0951 1.52246 18.1895 1.86751 18.1895 2.24512C18.1895 2.62272 18.0951 2.97103 17.9062 3.29004C17.7174 3.60254 17.4668 3.85645 17.1543 4.05176C16.8483 4.24056 16.513 4.33496 16.1484 4.33496H2.91602Z" fill="white"/>
</svg>
