<svg width="22" height="21" viewBox="0 0 22 21" fill="none" xmlns="http://www.w3.org/2000/svg">
<path d="M0.884888 10.25C0.884888 9.51282 1.50122 8.89648 2.2384 8.89648H9.64648V1.4884C9.64648 0.751221 10.2628 0.134888 11 0.134888C11.7372 0.134888 12.3535 0.751221 12.3535 1.4884V8.89648H19.7616C20.4988 8.89648 21.1151 9.51282 21.1151 10.25C21.1151 10.9993 20.4988 11.6035 19.7616 11.6035H12.3535V19.0116C12.3535 19.7488 11.7372 20.3651 11 20.3651C10.2628 20.3651 9.64648 19.7488 9.64648 19.0116V11.6035H2.2384C1.50122 11.6035 0.884888 10.9993 0.884888 10.25Z" fill="white"/>
</svg>
