<svg width="21" height="26" viewBox="0 0 21 26" fill="none" xmlns="http://www.w3.org/2000/svg">
<path d="M4.85115 5.54131V3.14074C4.85115 2.1005 5.10788 1.31698 5.62133 0.790187C6.14145 0.263396 6.9183 0 7.95188 0H11.7828C12.3229 0 12.8064 0.0766848 13.2331 0.230054C13.6599 0.376756 14.05 0.633483 14.4034 1.00024L19.4546 6.13145C19.828 6.51821 20.0881 6.92497 20.2348 7.35174C20.3815 7.77851 20.4548 8.29863 20.4548 8.91211V17.034C20.4548 18.0743 20.1948 18.8578 19.6747 19.3846C19.1612 19.9114 18.3877 20.1748 17.3541 20.1748H15.2936V18.5644H17.2641C17.7842 18.5644 18.1776 18.431 18.4444 18.1643C18.7111 17.8909 18.8445 17.5041 18.8445 17.004V8.452H14.1634C13.5899 8.452 13.1598 8.31197 12.873 8.0319C12.593 7.75183 12.4529 7.32173 12.4529 6.7416V1.61038H8.0319C7.51178 1.61038 7.11835 1.74708 6.85162 2.02048C6.59156 2.28721 6.46153 2.67063 6.46153 3.17075V5.54131H4.85115ZM13.9033 6.50154C13.9033 6.68158 13.94 6.81161 14.0133 6.89163C14.0933 6.96498 14.22 7.00166 14.3934 7.00166H18.4244L13.9033 2.40057V6.50154ZM0 22.0252V8.13192C0 7.09168 0.256727 6.30816 0.770182 5.78137C1.29031 5.25458 2.06716 4.99118 3.10073 4.99118H6.63157C7.1917 4.99118 7.65514 5.0512 8.0219 5.17122C8.38865 5.29125 8.76207 5.54798 9.14216 5.94141L14.6535 11.5527C14.9202 11.8261 15.1202 12.0862 15.2536 12.3329C15.3936 12.573 15.487 12.8397 15.5337 13.1331C15.5804 13.4265 15.6037 13.7866 15.6037 14.2134V22.0252C15.6037 23.0655 15.3436 23.849 14.8235 24.3758C14.3101 24.9026 13.5365 25.166 12.503 25.166H3.10073C2.06716 25.166 1.29031 24.9026 0.770182 24.3758C0.256727 23.8556 0 23.0721 0 22.0252ZM1.61038 21.9952C1.61038 22.4953 1.74041 22.8787 2.00047 23.1455C2.2672 23.4189 2.6573 23.5556 3.17075 23.5556H12.4229C12.9364 23.5556 13.3265 23.4189 13.5932 23.1455C13.8599 22.8787 13.9933 22.4953 13.9933 21.9952V14.2934H8.34197C7.72183 14.2934 7.25172 14.1367 6.93164 13.8233C6.61823 13.5099 6.46153 13.0364 6.46153 12.4029V6.60156H3.18075C2.66063 6.60156 2.2672 6.73826 2.00047 7.01166C1.74041 7.27839 1.61038 7.65848 1.61038 8.15193V21.9952ZM8.53202 12.783H13.6832L7.97189 6.97165V12.2229C7.97189 12.4229 8.01523 12.5663 8.10192 12.653C8.1886 12.7397 8.33197 12.783 8.53202 12.783Z" fill="white"/>
</svg>
