<svg width="21" height="23" viewBox="0 0 21 23" fill="none" xmlns="http://www.w3.org/2000/svg">
<path d="M6.05361 22.1154C4.49111 22.1154 3.51696 21.2087 3.44944 19.6559L2.80322 5.8538H1.80978C1.2793 5.8538 0.854919 5.44871 0.854919 4.90858C0.854919 4.37811 1.2793 3.97301 1.80978 3.97301H6.00538V2.55519C6.00538 1.02162 6.96989 0.124634 8.64813 0.124634H12.3229C14.0011 0.124634 14.9753 1.02162 14.9753 2.55519V3.97301H19.1805C19.7207 3.97301 20.1354 4.37811 20.1354 4.90858C20.1354 5.44871 19.7207 5.8538 19.1805 5.8538H18.1871L17.5409 19.6462C17.4734 21.2087 16.4896 22.1154 14.9367 22.1154H6.05361ZM7.97297 2.63235V3.97301H13.0077V2.63235C13.0077 2.16939 12.6894 1.88004 12.1782 1.88004H8.79281C8.29126 1.88004 7.97297 2.16939 7.97297 2.63235ZM6.29473 20.2153H14.6859C15.2261 20.2153 15.5829 19.8488 15.6022 19.2701L16.2195 5.8538H4.74188L5.37845 19.2701C5.40739 19.8391 5.76426 20.2153 6.29473 20.2153ZM7.66433 18.73C7.2496 18.73 6.96024 18.4599 6.9506 18.0452L6.66125 8.09145C6.6516 7.68636 6.93131 7.40666 7.36534 7.40666C7.78007 7.40666 8.06943 7.67672 8.07907 8.09145L8.36842 18.0355C8.37807 18.4406 8.09836 18.73 7.66433 18.73ZM10.5 18.73C10.066 18.73 9.7766 18.4503 9.7766 18.0452V8.09145C9.7766 7.67672 10.066 7.40666 10.5 7.40666C10.9244 7.40666 11.2137 7.67672 11.2137 8.09145V18.0452C11.2137 18.4503 10.9244 18.73 10.5 18.73ZM13.326 18.73C12.892 18.73 12.6122 18.4503 12.6219 18.0355L12.9112 8.09145C12.9209 7.67672 13.2102 7.40666 13.625 7.40666C14.059 7.40666 14.3387 7.68636 14.3291 8.09145L14.0397 18.0452C14.0301 18.4599 13.7407 18.73 13.326 18.73Z" fill="black"/>
</svg>
