<svg width="154" height="33" viewBox="0 0 154 33" fill="none" xmlns="http://www.w3.org/2000/svg">
<path d="M2.57524 1.00384H7.68279L16.224 24.5243L24.7437 1.00384H29.8727L18.2627 32.25H14.1638L2.57524 1.00384ZM0 1.00384H5.00025L5.90158 22.6144V32.25H0V1.00384ZM27.4263 1.00384H32.448V32.25H26.5464V22.6144L27.4263 1.00384Z" fill="black"/>
<path d="M41.1491 1.00384L48.0164 15.5754L54.9266 1.00384H61.4076L51.0208 20.8117V32.25H45.0334V20.8117L34.6251 1.00384H41.1491Z" fill="black"/>
<path d="M76.2034 20.8546H68.1558V16.2192H76.2034C77.5197 16.2192 78.5855 16.0046 79.401 15.5754C80.2308 15.1319 80.8389 14.531 81.2251 13.7727C81.6114 13.0001 81.8046 12.1203 81.8046 11.1331C81.8046 10.1745 81.6114 9.28036 81.2251 8.45056C80.8389 7.62076 80.2308 6.94834 79.401 6.43329C78.5855 5.91825 77.5197 5.66072 76.2034 5.66072H70.0872V32.25H64.1857V1.00384H76.2034C78.6356 1.00384 80.7101 1.4402 82.4269 2.31292C84.158 3.17133 85.4743 4.36595 86.3756 5.89679C87.2912 7.41331 87.7491 9.14444 87.7491 11.0902C87.7491 13.1074 87.2912 14.8457 86.3756 16.305C85.4743 17.7643 84.158 18.8874 82.4269 19.6743C80.7101 20.4612 78.6356 20.8546 76.2034 20.8546Z" fill="black"/>
<path d="M109.422 1.00384L115.667 12.1417L121.933 1.00384H128.715L119.444 16.4982L128.951 32.25H122.105L115.667 20.8975L109.25 32.25H102.383L111.89 16.4982L102.619 1.00384H109.422Z" fill="black"/>
<path d="M91.8057 0.943115H98.8057V8.03402H91.8057V0.943115Z" fill="#007AFF"/>
<path d="M91.8057 9.03402H98.8057V16.1249H91.8057V9.03402Z" fill="#DA0606"/>
<path d="M91.8057 17.1249H98.8057V24.2158H91.8057V17.1249Z" fill="#FFD700"/>
<path d="M91.7602 25.2158H98.8511V32.3068H91.7602V25.2158Z" fill="#008412"/>
<path d="M153.159 27.6139V32.2499H136.547V27.6139H153.159ZM138.35 0.999933V32.2499H132.447V0.999933H138.35ZM150.991 13.8991V18.4278H136.547V13.8991H150.991ZM153.095 0.999933V5.65739H136.547V0.999933H153.095Z" fill="black"/>
</svg>
