<svg width="25" height="25" viewBox="0 0 25 25" fill="none" xmlns="http://www.w3.org/2000/svg">
<path d="M11.4089 24.8699C10.4531 24.8699 9.69507 24.2766 9.47534 23.3647L9.04688 21.5081L8.80518 21.4202L7.1792 22.4089C6.3772 22.9143 5.42139 22.7825 4.75122 22.1013L3.20215 20.5632C2.521 19.8711 2.40015 18.9263 2.90552 18.1243L3.90527 16.5203L3.81738 16.2896L1.97168 15.8501C1.05981 15.6304 0.466553 14.8723 0.466553 13.9165V11.7632C0.466553 10.8184 1.04883 10.0603 1.97168 9.82959L3.8064 9.37915L3.89429 9.13745L2.89453 7.53345C2.38916 6.74243 2.51001 5.79761 3.19116 5.0835L4.74023 3.54541C5.4104 2.87524 6.36621 2.74341 7.16821 3.23779L8.7832 4.22656L9.04688 4.13867L9.47534 2.271C9.69507 1.35913 10.4531 0.765869 11.4089 0.765869H13.6501C14.606 0.765869 15.364 1.35913 15.5837 2.271L16.0122 4.13867L16.2649 4.22656L17.8909 3.23779C18.6929 2.74341 19.6487 2.87524 20.3188 3.54541L21.8569 5.0835C22.5491 5.79761 22.6699 6.74243 22.1646 7.53345L21.1648 9.13745L21.2527 9.37915L23.0874 9.82959C23.9993 10.0493 24.5925 10.8184 24.5925 11.7632V13.9165C24.5925 14.8723 23.9993 15.6304 23.0874 15.8501L21.2417 16.2896L21.1538 16.5203L22.1536 18.1243C22.6589 18.9263 22.5381 19.8711 21.8569 20.5632L20.3079 22.1013C19.6377 22.7825 18.6819 22.9143 17.8689 22.4089L16.2539 21.4202L16.0122 21.5081L15.5837 23.3647C15.364 24.2766 14.606 24.8699 13.6501 24.8699H11.4089ZM11.7605 22.6726H13.2986C13.4854 22.6726 13.5732 22.5957 13.6062 22.4309L14.2544 19.7393C15.0125 19.5635 15.6497 19.2888 16.2429 18.9043L18.594 20.3545C18.7258 20.4424 18.8577 20.4424 18.9895 20.3105L20.0662 19.2339C20.187 19.113 20.187 18.9922 20.0991 18.8494L18.6489 16.4983C18.9895 15.938 19.2861 15.2458 19.4509 14.5317L22.1536 13.8945C22.3074 13.8616 22.3953 13.7737 22.3953 13.5869V12.0818C22.3953 11.895 22.3184 11.8181 22.1536 11.7742L19.4509 11.137C19.2971 10.4009 18.9675 9.68677 18.6709 9.15942L20.1101 6.80835C20.198 6.66553 20.209 6.53369 20.0771 6.41284L19.0005 5.34717C18.8687 5.22632 18.7478 5.21533 18.594 5.30322L16.2429 6.73145C15.6716 6.39087 14.9905 6.08325 14.2544 5.91846L13.6062 3.20483C13.5732 3.05103 13.4854 2.96313 13.2986 2.96313H11.7605C11.5737 2.96313 11.4858 3.05103 11.4529 3.20483L10.8157 5.89648C10.0796 6.08325 9.32153 6.40186 8.80518 6.73145L6.4541 5.29224C6.30029 5.20435 6.17944 5.21533 6.04761 5.34717L4.97095 6.40186C4.83911 6.53369 4.8501 6.65454 4.93799 6.80835L6.38818 9.15942C6.09155 9.68677 5.76196 10.4009 5.59717 11.137L2.90552 11.7742C2.74072 11.8181 2.66382 11.895 2.66382 12.0818V13.5869C2.66382 13.7737 2.75171 13.8616 2.90552 13.8945L5.60815 14.5317C5.76196 15.2458 6.06958 15.927 6.41016 16.4983L4.94897 18.8604C4.86108 18.9922 4.86108 19.124 4.98193 19.2449L6.05859 20.3215C6.19043 20.4424 6.32227 20.4534 6.4541 20.3655L8.81616 18.9043C9.39844 19.2888 10.0906 19.5745 10.8157 19.7393L11.4529 22.4309C11.4858 22.5847 11.5737 22.6726 11.7605 22.6726ZM12.5295 16.9817C10.2444 16.9817 8.36572 15.103 8.36572 12.8179C8.36572 10.5437 10.2444 8.67603 12.5295 8.67603C14.8147 8.67603 16.6824 10.5437 16.6824 12.8179C16.6824 15.114 14.8147 16.9817 12.5295 16.9817ZM12.5295 14.9602C13.6721 14.9602 14.6389 13.9824 14.6389 12.8179C14.6389 11.6643 13.6721 10.7085 12.5295 10.7085C11.365 10.7085 10.3982 11.6643 10.3982 12.8179C10.3982 13.9934 11.365 14.9602 12.5295 14.9602Z" fill="white"/>
</svg>
