<svg width="23" height="20" viewBox="0 0 23 20" fill="none" xmlns="http://www.w3.org/2000/svg">
<path d="M21.964 0.25C22.6727 0.25 23.2074 0.862182 22.9214 2.00084L19.4522 18.1012C19.2097 19.246 18.5072 19.5215 17.5373 18.9889L9.26219 12.9711C9.2301 12.9485 9.20396 12.9186 9.18592 12.884C9.16789 12.8494 9.15848 12.8111 9.15848 12.7722C9.15848 12.7333 9.16789 12.695 9.18592 12.6604C9.20396 12.6258 9.2301 12.5959 9.26219 12.5732L18.8181 4.07614C19.2533 3.69658 18.7248 3.51293 18.1528 3.85575L6.1598 11.306C6.12343 11.3294 6.08213 11.3443 6.03904 11.3496C5.99595 11.3549 5.95221 11.3504 5.91111 11.3366L0.819211 9.75106C-0.312323 9.4266 -0.312323 8.66138 1.07412 8.11653L21.4479 0.378558C21.6095 0.302232 21.785 0.258521 21.964 0.25Z" fill="white"/>
</svg>
